# xmcd
#
# Track frame offsets: 
#        170
#        9580
#        22862
#        36295
#        47380
#        60400
#        72712
#        85267
#        96312
#        107775
#        120680
#        139600
#        155225
#        166305
#        176752
#        186930
#        201005
#        211020
#        231612
#        244850
#        256695
#        273365
#        286812
#        299777
#
# Disc length: 4146 seconds
#
# Revision: 4
# Processed by: cddbd v1.4PL0 Copyright (c) Steve Scherf et al.
# Submitted via: ExactAudioCopy v0.90b3
#
DISCID=62103018
DTITLE=Charley Pride - 24 Greatest Hits
DYEAR=1996
DGENRE=Country
TTITLE0=Kiss An Angel Good Morning
TTITLE1=Mountian Of Love
TTITLE2=All I Have To Offer You (Is Me)
TTITLE3=Is Anybody Goin' To San Antone
TTITLE4=I Don't Think She's In Love Anymore
TTITLE5=Kaw-Liga
TTITLE6=Crystal Chandelier
TTITLE7=Mississippi Cotton Picking Delta Town
TTITLE8=I'm Just Me
TTITLE9=She's Too Good To Be True
TTITLE10=Where Do I Put Her Memory
TTITLE11=Burgers And Fries
TTITLE12=Does My Ring Hurt Your Finger
TTITLE13=I Know One
TTITLE14=Just Between You And Me
TTITLE15=Never Been So Loved (In All Of My Life)
TTITLE16=Someone Loves You Honey
TTITLE17=You're So Good When You're Bad
TTITLE18=(I'm So) Afraid Of Losing You Again
TTITLE19=She's Just An Old Love Turned Memory
TTITLE20=Roll On Mississippi
TTITLE21=Amazing Love
TTITLE22=I'll Be Leaving Alone
TTITLE23=Missin' You
EXTD=ID3G: 2
EXTT0=
EXTT1=
EXTT2=
EXTT3=
EXTT4=
EXTT5=
EXTT6=
EXTT7=
EXTT8=
EXTT9=
EXTT10=
EXTT11=
EXTT12=
EXTT13=
EXTT14=
EXTT15=
EXTT16=
EXTT17=
EXTT18=
EXTT19=
EXTT20=
EXTT21=
EXTT22=
EXTT23=
PLAYORDER=
